<?xml version="1.0" encoding="UTF-8" standalone="no"?>
<svg width="474px" height="474px" viewBox="0 0 474 474" version="1.1" xmlns="http://www.w3.org/2000/svg" xmlns:xlink="http://www.w3.org/1999/xlink">
    <!-- Generator: Sketch 48.2 (47327) - http://www.bohemiancoding.com/sketch -->
    <title>search</title>
    <desc>Created with Sketch.</desc>
    <defs></defs>
    <g id="Page-1" stroke="none" stroke-width="1" fill="none" fill-rule="evenodd">
        <g id="search" fill-rule="nonzero">
            <path d="M0,236.601344 C0,105.921356 105.92994,0 236.595622,0 C367.267026,0 473.196966,105.921356 473.196966,236.601344 C473.196966,367.263211 367.267026,473.191243 236.595622,473.191243 C105.92994,473.191243 0,367.263211 0,236.601344 Z" id="Shape" fill="#A3D5E0"></path>
            <path d="M365.780221,338.822263 L301.001552,271.201419 C317.657286,251.329014 326.783061,226.325463 326.783061,200.295682 C326.783061,139.479602 277.484765,90 216.891531,90 C156.298296,90 107,139.479602 107,200.295682 C107,261.111762 156.298296,310.591364 216.891531,310.591364 C239.639077,310.591364 261.316376,303.705077 279.849822,290.632641 L345.120613,358.7666 L365.780221,338.822263 Z M216.891531,118.772787 C261.679496,118.772787 298.115705,155.342998 298.115705,200.295682 C298.115705,245.248366 261.679496,281.818577 216.891531,281.818577 C172.103565,281.818577 135.667356,245.248366 135.667356,200.295682 C135.667356,155.342998 172.103565,118.772787 216.891531,118.772787 Z" id="Shape" fill="#F0EDEE" transform="translate(236.390110, 224.383300) scale(-1, 1) translate(-236.390110, -224.383300) "></path>
        </g>
    </g>
</svg>